<svg preserveAspectRatio="none" overflow="visible" style="display: block;" width="14" height="14" viewBox="0 0 14 14" fill="none" xmlns="http://www.w3.org/2000/svg">
<g id="Edit / Edit_Pencil_01">
<path id="Vector" d="M7 4.66673L2.33333 9.3334V11.6667L4.66667 11.6667L9.33333 7.00006M7 4.66673L8.67337 2.99335L8.67437 2.99236C8.90472 2.76201 9.0201 2.64663 9.1531 2.60342C9.27026 2.56535 9.39647 2.56535 9.51363 2.60342C9.64654 2.6466 9.76178 2.76185 9.9918 2.99187L11.0067 4.00675C11.2377 4.23776 11.3533 4.35332 11.3965 4.48651C11.4346 4.60367 11.4346 4.72987 11.3965 4.84703C11.3533 4.98013 11.2379 5.09551 11.0072 5.32619L11.0067 5.32669L9.33333 7.00006M7 4.66673L9.33333 7.00006" stroke="white" stroke-width="2" stroke-linecap="round" stroke-linejoin="round"/>
</g>
</svg>
