<svg width="22" height="22" viewBox="0 0 22 22" fill="none" xmlns="http://www.w3.org/2000/svg">
<g>
<path d="M11 8.25C15.0501 8.25 18.3333 7.01878 18.3333 5.5C18.3333 3.98122 15.0501 2.75 11 2.75C6.94991 2.75 3.66667 3.98122 3.66667 5.5C3.66667 7.01878 6.94991 8.25 11 8.25Z" stroke="#FAAB14" stroke-width="1.83333" stroke-linecap="round" stroke-linejoin="round"/>
<path d="M3.66667 5.5V11C3.66667 12.5583 6.96667 13.75 11 13.75C15.0333 13.75 18.3333 12.5583 18.3333 11V5.5" stroke="#FAAB14" stroke-width="1.83333" stroke-linecap="round" stroke-linejoin="round"/>
<path d="M3.66667 11V16.5C3.66667 18.0583 6.96667 19.25 11 19.25C15.0333 19.25 18.3333 18.0583 18.3333 16.5V11" stroke="#FAAB14" stroke-width="1.83333" stroke-linecap="round" stroke-linejoin="round"/>
</g>
</svg>
